<?xml version="1.0" standalone="no"?>
<!DOCTYPE svg PUBLIC "-//W3C//DTD SVG 20010904//EN"
 "http://www.w3.org/TR/2001/REC-SVG-20010904/DTD/svg10.dtd">
<svg version="1.0" xmlns="http://www.w3.org/2000/svg"
 width="16.000000pt" height="16.000000pt" viewBox="0 0 16.000000 16.000000"
 preserveAspectRatio="xMidYMid meet">
<metadata>
Created by potrace 1.11, written by Peter Selinger 2001-2013
</metadata>
<g transform="translate(0.000000,16.000000) scale(0.003125,-0.003125)"
fill="#000000" stroke="none">
<path d="M2350 5103 c-112 -11 -214 -26 -280 -40 -41 -8 -82 -16 -90 -18 -83
-17 -306 -88 -405 -130 -557 -235 -1018 -663 -1293 -1202 -130 -255 -231 -596
-259 -881 -10 -100 -10 -425 0 -522 77 -746 472 -1408 1099 -1843 122 -85 319
-191 456 -246 128 -52 152 -60 232 -84 139 -41 272 -71 365 -82 22 -3 49 -7
60 -9 96 -18 378 -25 531 -12 83 7 277 33 306 42 9 3 25 6 35 8 61 13 195 51
284 82 517 178 956 513 1273 969 202 290 374 722 411 1034 3 23 7 55 9 70 21
128 28 386 14 546 -42 491 -224 950 -536 1355 -97 125 -330 354 -463 453 -355
265 -778 440 -1189 493 -25 3 -56 8 -70 11 -31 6 -442 12 -490 6z m430 -307
c65 -7 148 -20 255 -41 145 -29 350 -100 507 -177 505 -247 902 -677 1106
-1199 50 -129 111 -349 126 -459 28 -200 34 -359 20 -520 -3 -47 -7 -92 -7
-101 -1 -13 -9 -15 -37 -11 -88 12 -413 5 -587 -13 -24 -3 -43 -1 -43 3 0 4 6
39 14 77 24 119 27 144 33 351 4 161 2 219 -11 297 -32 191 -109 351 -234 492
-38 42 -43 53 -37 80 25 116 30 285 11 365 -4 14 -8 37 -11 51 -7 38 -43 152
-54 168 -7 10 -26 12 -82 8 -92 -7 -111 -11 -201 -43 -91 -33 -208 -91 -311
-155 -80 -50 -80 -50 -157 -34 -167 34 -295 46 -482 47 -123 0 -255 -7 -309
-17 -9 -2 -40 -6 -70 -10 -49 -6 -211 -39 -249 -50 -9 -3 -47 15 -85 40 -95
61 -244 137 -332 169 -81 29 -211 53 -261 48 -32 -3 -44 -18 -57 -72 -3 -8
-11 -40 -20 -70 -20 -74 -29 -148 -28 -250 0 -100 4 -134 28 -217 l17 -62 -50
-64 c-88 -110 -169 -286 -188 -403 -3 -22 -9 -57 -13 -79 -8 -47 -7 -229 3
-335 8 -91 42 -261 61 -306 7 -18 11 -35 8 -37 -2 -3 -50 -3 -106 0 -155 8
-390 7 -504 -1 -56 -3 -104 -3 -107 2 -24 39 -25 479 -1 603 3 13 7 41 11 64
29 197 103 424 208 635 284 571 808 996 1428 1159 100 27 145 36 263 55 17 3
62 8 100 11 39 4 71 7 72 8 5 5 299 -1 363 -7z m1958 -2531 c40 -6 43 -8 38
-33 -3 -15 -8 -46 -11 -69 -4 -24 -10 -45 -14 -47 -3 -2 -27 -1 -51 4 -25 5
-65 11 -90 14 -25 3 -65 8 -89 12 -24 3 -132 7 -240 8 -116 1 -196 6 -196 11
0 6 6 26 13 46 13 36 13 36 85 43 40 4 119 9 177 13 58 3 106 7 108 8 5 4 227
-4 270 -10z m-3895 -19 c121 -2 220 -6 222 -8 1 -2 11 -23 22 -49 l20 -45
-106 -2 c-117 -2 -269 -10 -346 -18 -113 -11 -246 -31 -269 -40 -16 -6 -32 39
-38 110 -4 45 -10 43 137 52 55 3 101 7 103 9 2 1 11 1 20 -1 9 -2 115 -5 235
-8z m3575 -117 c50 -1 113 -5 140 -9 190 -31 193 -32 188 -48 -3 -10 -12 -46
-21 -82 -46 -186 -145 -413 -262 -602 -167 -271 -408 -516 -683 -696 -75 -49
-350 -197 -350 -188 0 2 -37 -12 -82 -30 -61 -24 -84 -30 -90 -21 -4 7 -8 169
-8 362 -1 382 -2 397 -25 487 -21 84 -60 152 -122 214 -29 29 -53 54 -53 56 0
2 15 4 33 4 28 1 107 13 187 29 296 56 493 148 642 299 56 56 148 191 148 215
0 17 34 18 358 10z m-3254 -78 c116 -173 311 -311 555 -391 94 -30 291 -73
385 -84 27 -3 50 -7 52 -9 2 -2 -17 -23 -41 -46 -55 -52 -93 -115 -120 -195
-20 -59 -21 -60 -79 -83 -80 -30 -145 -41 -230 -38 -155 5 -266 75 -370 233
-93 140 -207 220 -330 229 -84 7 -116 -5 -116 -42 0 -19 15 -36 57 -68 138
-103 213 -196 267 -333 53 -132 129 -215 251 -273 44 -22 98 -42 120 -47 22
-4 47 -9 55 -11 27 -7 178 -5 232 3 29 4 66 8 83 8 l30 1 0 -230 c0 -126 -4
-238 -7 -247 -17 -41 -420 132 -628 269 -458 303 -793 760 -934 1272 l-24 90
26 5 c15 3 43 8 62 11 19 3 42 8 50 10 8 2 47 7 85 11 39 3 84 8 100 10 17 2
107 6 200 10 94 3 171 7 173 8 1 2 14 1 27 -2 17 -3 39 -25 69 -71z m-116
-410 c8 -5 12 -17 10 -27 -4 -25 -50 -30 -68 -8 -12 14 -12 18 5 30 22 16 34
17 53 5z m130 -88 c2 -13 -1 -23 -6 -23 -6 0 -16 -2 -24 -5 -7 -3 -22 1 -33 9
-17 12 -17 16 -5 30 20 25 64 17 68 -11z m78 -75 c18 -29 -52 -51 -75 -24 -10
11 -8 17 9 29 21 15 55 12 66 -5z m66 -102 c9 -14 -10 -36 -32 -36 -50 0 -68
34 -27 49 24 9 48 4 59 -13z m62 -82 c18 -7 21 -30 6 -39 -35 -22 -79 -2 -66
30 6 16 33 20 60 9z m1251 -66 c2 -7 7 -202 9 -433 3 -231 8 -430 10 -443 5
-20 1 -22 -46 -22 l-50 0 6 32 c3 18 6 223 7 456 l2 422 29 0 c16 0 31 -6 33
-12z m-1151 -14 c21 -8 20 -31 -1 -42 -34 -18 -81 17 -56 41 8 9 36 9 57 1z
m814 -406 c1 -222 0 -416 -4 -431 -5 -25 -9 -27 -45 -25 -39 2 -40 2 -34 37 4
20 6 180 6 356 0 282 2 326 18 373 14 40 45 92 55 92 1 0 3 -181 4 -402z m679
293 c13 -46 16 -113 18 -381 0 -179 5 -331 9 -338 5 -8 0 -12 -16 -13 -13 0
-33 -2 -45 -5 -17 -3 -23 1 -24 14 -3 103 -4 809 -1 816 9 17 42 -35 59 -93z
m-1061 74 c9 -23 -13 -43 -41 -37 -29 5 -39 17 -31 37 7 20 65 20 72 0z m-286
-21 c11 -12 11 -18 -3 -31 -21 -21 -67 -10 -67 16 0 31 49 42 70 15z m138 4
c17 -17 15 -26 -8 -38 -24 -13 -60 -4 -60 14 0 17 21 36 40 36 9 0 21 -5 28
-12z"/>
</g>
</svg>
